# xmcd
# 
# Track frame offsets:
#     150
#     14115
#     31172
# 
# Disc length: 681
# 
# Revision: 4
# Processed by: cddbd v1.5.2PL0 Copyright (c) Steve Scherf et al.
# Submitted via: fre:ac v1.0.31
# 
DISCID=1d02a703
DTITLE=Los PLanetas - Qué puedo hacer
DYEAR=1994
DGENRE=Pop
TTITLE0=Qué puedo hacer
TTITLE1=Espiral (demo)
TTITLE2=Rey sombra
EXTD=
EXTT0=
EXTT1=
EXTT2=
PLAYORDER=
